#N canvas 827 239 527 327 12;
#N canvas 0 0 450 250 (subpatch) 0;
#X array input-sample 199829 float 2;
#X coords 0 1 199829 -1 200 140 1;
#X restore 39 52 graph;
#X obj 287 52 loadbang;
#X msg 287 78 read -resize ./oboe.wav input-sample;
#X obj 287 104 soundfiler;
#X obj 39 380 phasor~;
#X obj 39 260 timer;
#X obj 39 213 bng 25 250 50 0 empty empty empty 17 7 0 10 #000000 #ffffff #ffffff;
#X obj 75 213 bng 25 250 50 0 empty empty empty 17 7 0 10 #000000 #ffffff #ffffff;
#X floatatom 39 286 5 0 0 0 - - - 12;
#X obj 39 311 t f f;
#X obj 238 337 * 44.1;
#X obj 39 425 *~;
#X obj 39 351 expr (1000 / $f1);
#X obj 39 464 tabread4~ input-sample;
#X obj 140 527 hsl 128 17 0 1 0 0 empty empty empty -2 -8 0 10 #000000 #ffffff #ffffff 0 1;
#X obj 39 507 *~;
#X obj 381 389 *~ 44.1;
#X obj 381 348 line~;
#X msg 381 293 1233.5 1233.5;
#X obj 382 431 tabread4~ input-sample;
#X obj 455 474 hsl 128 17 0 1 0 0 empty empty empty -2 -8 0 10 #000000 #ffffff #ffffff 0 1;
#X obj 382 474 *~;
#X msg 508 293 0;
#X obj 381 253 t b b;
#X obj 381 213 bng 25 250 50 0 empty empty empty 17 7 0 10 #000000 #ffffff #ffffff;
#X text 381 172 play oneshot;
#X obj 693 34 looper-manager;
#X obj 382 626 throw~ looper-master-in;
#X obj 412 517 adc~;
#X obj 485 558 hsl 128 17 0 1 0 0 empty empty empty -2 -8 0 10 #000000 #ffffff #ffffff 0 1;
#X obj 412 558 *~;
#X connect 1 0 2 0;
#X connect 2 0 3 0;
#X connect 4 0 11 0;
#X connect 5 0 8 0;
#X connect 6 0 5 0;
#X connect 7 0 5 1;
#X connect 8 0 9 0;
#X connect 9 0 12 0;
#X connect 9 1 10 0;
#X connect 10 0 11 1;
#X connect 11 0 13 0;
#X connect 12 0 4 0;
#X connect 13 0 15 0;
#X connect 14 0 15 1;
#X connect 16 0 19 0;
#X connect 17 0 16 0;
#X connect 18 0 17 0;
#X connect 19 0 21 0;
#X connect 20 0 21 1;
#X connect 21 0 27 0;
#X connect 22 0 17 0;
#X connect 23 0 18 0;
#X connect 23 1 22 0;
#X connect 24 0 23 0;
#X connect 28 0 30 0;
#X connect 28 1 30 0;
#X connect 29 0 30 1;
#X connect 30 0 27 0;
