#N canvas 827 239 527 327 12;
#N canvas 0 0 450 250 (subpatch) 0;
#X array input-sample 199829 float 2;
#X coords 0 1 199829 -1 200 140 1;
#X restore 39 52 graph;
#X obj 287 52 loadbang;
#X msg 287 78 read -resize ./oboe.wav input-sample;
#X obj 287 104 soundfiler;
#X obj 39 380 phasor~;
#X obj 39 260 timer;
#X obj 39 213 bng 25 250 50 0 empty empty empty 17 7 0 10 #000000 #ffffff #ffffff;
#X obj 75 213 bng 25 250 50 0 empty empty empty 17 7 0 10 #000000 #ffffff #ffffff;
#X floatatom 39 286 5 0 0 0 - - - 12;
#X obj 39 311 t f f;
#X obj 238 337 * 44.1;
#X obj 39 425 *~;
#X obj 39 351 expr (1000 / $f1);
#X obj 39 464 tabread4~ input-sample;
#X obj 140 527 hsl 128 17 0 1 0 0 empty empty empty -2 -8 0 10 #000000 #ffffff #ffffff 0 1;
#X obj 39 507 *~;
#X obj 381 389 *~ 44.1;
#X obj 381 348 line~;
#X msg 381 293 1233.5 1233.5;
#X obj 382 431 tabread4~ input-sample;
#X obj 455 474 hsl 128 17 0 1 0 0 empty empty empty -2 -8 0 10 #000000 #ffffff #ffffff 0 1;
#X obj 382 474 *~;
#X msg 508 293 0;
#X obj 381 253 t b b;
#X obj 381 213 bng 25 250 50 0 empty empty empty 17 7 0 10 #000000 #ffffff #ffffff;
#X text 381 172 play oneshot;
#X obj 693 34 looper-manager;
#X obj 382 650 throw~ looper-master-in;
#X obj 412 517 adc~;
#X obj 438 589 hsl 128 17 0 1 0 0 empty empty empty -2 -8 0 10 #000000 #ffffff #ffffff 0 1;
#X obj 412 618 *~;
#X obj 56 611 throw~ looper-master-in;
#X obj 310 544 dac~;
#X text 31 1062 cueing system to cue between gestures and between movements, f 76;
#X text 31 1093 cue 1: activated by beginning percussive sound -- all buffers are filled and parameters are randomized, f 97;
#X text 53 1164 subsequent sounds fill buffers one-by-one with stutter gates;
#X text 53 1120 buffer durations increase and speeds gradually converge to form uniform sound;
#X text 31 1198 cue 2: buffer lengths gradually increase to create wash of tones;
#X text 53 1224 multiphonics are introduced -- these trigger the buffers to spread out across spectrum;
#X text 18 1389 percussive sounds phase \, creating dense clicky texture -> lengths gradually lengthen to form whole sounds and lower tones are introduced to form muddy low-end. -> Low tones are shifted throughout spectrum to combine with percussive sounds and replace them \, gradually forming a wash of tones. Multiphonics are introducedand and, f 101;
#X text 758 1116 8 buffers \, each on their own channel;
#X text 758 1138 each buffer has paramters: duration \, speed/pitch \, phase;
#X text 758 1161 each channel: buffer -> delay -> distortion -> bussed into master reverb;
#X text 758 1069 buffers begin recording on transient \, stop recording until next transient or timeout. Record cyclically.;
#X obj 66 765 s looper-rec-start;
#X obj 239 765 s looper-rec-stop;
#X obj 66 685 bng 25 250 50 0 empty empty empty 17 7 0 10 #000000 #ffffff #ffffff;
#X obj 239 685 bng 25 250 50 0 empty empty empty 17 7 0 10 #000000 #ffffff #ffffff;
#X obj 492 740 hsl 128 17 0 1 0 0 empty empty empty -2 -8 0 10 #000000 #ffffff #ffffff 0 1;
#X obj 492 820 hsl 128 17 -1 2 0 0 empty empty empty -2 -8 0 10 #000000 #ffffff #ffffff 0 1;
#X obj 486 779 s 1-playback-dur;
#X obj 486 860 s 1-playback-speed;
#X obj 471 517 hsl 128 17 0 20000 0 0 empty empty empty -2 -8 0 10 #000000 #ffffff #ffffff 0 1;
#X obj 412 558 lowpass~ 1000 0.1;
#X obj 673 740 hsl 128 17 0 1 0 0 empty empty empty -2 -8 0 10 #000000 #ffffff #ffffff 0 1;
#X obj 673 820 hsl 128 17 -1 2 0 0 empty empty empty -2 -8 0 10 #000000 #ffffff #ffffff 0 1;
#X obj 667 779 s 2-playback-dur;
#X obj 667 860 s 2-playback-speed;
#X obj 854 740 hsl 128 17 0 1 0 0 empty empty empty -2 -8 0 10 #000000 #ffffff #ffffff 0 1;
#X obj 854 820 hsl 128 17 -1 2 0 0 empty empty empty -2 -8 0 10 #000000 #ffffff #ffffff 0 1;
#X obj 1035 740 hsl 128 17 0 1 0 0 empty empty empty -2 -8 0 10 #000000 #ffffff #ffffff 0 1;
#X obj 1035 820 hsl 128 17 -1 2 0 0 empty empty empty -2 -8 0 10 #000000 #ffffff #ffffff 0 1;
#X obj 848 779 s 3-playback-dur;
#X obj 848 860 s 3-playback-speed;
#X obj 1029 779 s 4-playback-dur;
#X obj 1029 860 s 4-playback-speed;
#N canvas 0 50 450 300 enable 0;
#X obj 4 16 tgl 79 0 empty empty empty 17 7 0 10 #000000 #ffffff #ffffff 0 1;
#X obj 4 112 s \$0-enable;
#X obj 143 16 r \$0-enable;
#X obj 143 42 sel 1;
#X obj 143 103 s vols;
#X obj 143 68 f 0.75;
#X obj 204 68 f 0;
#X connect 0 0 1 0;
#X connect 2 0 3 0;
#X connect 3 0 5 0;
#X connect 3 1 6 0;
#X connect 5 0 4 0;
#X connect 6 0 4 0;
#X coords 0 0 1 1 90 100 1 0 0;
#X restore 595 34 pd enable;
#X connect 1 0 2 0;
#X connect 2 0 3 0;
#X connect 4 0 11 0;
#X connect 5 0 8 0;
#X connect 6 0 5 0;
#X connect 7 0 5 1;
#X connect 8 0 9 0;
#X connect 9 0 12 0;
#X connect 9 1 10 0;
#X connect 10 0 11 1;
#X connect 11 0 13 0;
#X connect 12 0 4 0;
#X connect 13 0 15 0;
#X connect 14 0 15 1;
#X connect 15 0 31 0;
#X connect 16 0 19 0;
#X connect 17 0 16 0;
#X connect 18 0 17 0;
#X connect 19 0 21 0;
#X connect 20 0 21 1;
#X connect 21 0 32 0;
#X connect 21 0 32 1;
#X connect 21 0 27 0;
#X connect 22 0 17 0;
#X connect 23 0 18 0;
#X connect 23 1 22 0;
#X connect 24 0 23 0;
#X connect 28 0 53 0;
#X connect 29 0 30 1;
#X connect 30 0 27 0;
#X connect 46 0 44 0;
#X connect 47 0 45 0;
#X connect 48 0 50 0;
#X connect 49 0 51 0;
#X connect 52 0 53 1;
#X connect 53 0 30 0;
#X connect 54 0 56 0;
#X connect 55 0 57 0;
#X connect 58 0 62 0;
#X connect 59 0 63 0;
#X connect 60 0 64 0;
#X connect 61 0 65 0;
