#N canvas 827 239 527 400 12;
#X obj 619 156 env~ 4096;
#X floatatom 619 182 5 0 0 0 - - - 12;
#X obj 459 312 sig~;
#X obj 511 322 metro 100;
#X obj 526 232 tgl 25 0 empty empty empty 17 7 0 10 #191919 #ffffff #ffffff 0 1;
#X obj 619 217 * 15;
#X msg 619 248 \$1 100;
#X obj 619 278 line;
#X floatatom 619 304 5 0 0 0 - - - 12;
#X obj 619 58 inlet~;
#X text 687 57 audio in;
#N canvas 0 0 450 250 (subpatch) 0;
#X array \$0-oscope 1000 float 2;
#X coords 0 100 1000 0 500 140 1;
#X restore 23 138 graph;
#X text 526 207 on/off;
#X obj 619 402 outlet;
#X text 698 401 env rms out;
#X obj 459 356 tabwrite~ \$0-oscope;
#X connect 0 0 1 0;
#X connect 1 0 5 0;
#X connect 2 0 15 0;
#X connect 3 0 15 0;
#X connect 4 0 3 0;
#X connect 5 0 6 0;
#X connect 6 0 7 0;
#X connect 7 0 8 0;
#X connect 8 0 2 0;
#X connect 8 0 13 0;
#X connect 9 0 0 0;
#X coords 0 0 100 1 561 199 0;
