#N canvas 827 239 527 327 12;
#X obj 39 693 catch~ looper-master-in;
#X obj 3 72 transient_looper 1;
#X obj 385 72 transient_looper 2;
#X obj 3 360 transient_looper 3;
#X obj 385 360 transient_looper 4;
#X obj 39 756 transient_trigger;
#X floatatom 145 40 8 0 0 0 - looper-pos - 16;
#X text 145 11 recording into;
#X obj 96 40 bng 25 250 50 0 step-pos empty empty 17 7 0 10 #000000 #ffffff #ffffff;
#X text 96 11 step;
#X obj 61 40 bng 25 250 50 0 back-pos empty empty 17 7 0 10 #000000 #ffffff #ffffff;
#X text 61 11 prev;
#X obj 894 175 int 0;
#X obj 894 136 bng 25 250 50 0 empty empty empty 17 7 0 10 #191919 #ffffff #ffffff;
#X obj 1025 174 int;
#X obj 995 129 bng 25 250 50 0 empty empty empty 17 7 0 10 #191919 #ffffff #ffffff;
#X obj 1025 201 + 1;
#X obj 1169 174 int;
#X obj 1146 129 bng 25 250 50 0 empty empty empty 17 7 0 10 #191919 #ffffff #ffffff;
#X obj 1169 198 - 1;
#X text 894 43 init cue;
#X text 995 43 step cue;
#X text 1146 43 previous cue;
#X obj 805 86 loadbang;
#X obj 995 86 r step-pos;
#X obj 1146 86 r back-pos;
#X obj 3 40 bng 25 250 50 0 init-pos empty empty 17 7 0 10 #000000 #ffffff #ffffff;
#X text 3 11 init;
#X obj 894 86 r init-pos;
#X obj 894 208 s looper-pos;
#X obj 1036 135 r looper-pos;
#X obj 1180 135 r looper-pos;
#X obj 1025 381 s looper-pos;
#X obj 1169 230 s looper-pos;
#X obj 1025 295 sel 1;
#X obj 1025 354 int 0;
#X obj 1025 230 t f f;
#X obj 1025 321 bng 25 250 50 0 empty empty empty 17 7 0 10 #000000 #ffffff #ffffff;
#X obj 39 845 s looper-rec-start;
#X obj 54 731 s~ \$0-audio-in;
#X obj 279 693 r~ \$0-audio-in;
#X obj 314 771 throw~ looper-1-send;
#X obj 314 810 throw~ looper-2-send;
#X obj 314 847 throw~ looper-3-send;
#X obj 314 884 throw~ looper-3-send;
#X obj 1025 269 expr (($f1 > 4) || ($f1 < 0));
#X connect 0 0 5 0;
#X connect 0 0 39 0;
#X connect 5 0 38 0;
#X connect 12 0 29 0;
#X connect 13 0 12 0;
#X connect 14 0 16 0;
#X connect 15 0 14 0;
#X connect 16 0 36 0;
#X connect 17 0 19 0;
#X connect 18 0 17 0;
#X connect 19 0 33 0;
#X connect 23 0 13 0;
#X connect 24 0 15 0;
#X connect 25 0 18 0;
#X connect 28 0 13 0;
#X connect 30 0 14 1;
#X connect 31 0 17 1;
#X connect 34 0 37 0;
#X connect 35 0 32 0;
#X connect 36 0 45 0;
#X connect 36 1 32 0;
#X connect 37 0 35 0;
#X connect 40 0 41 0;
#X connect 40 0 42 0;
#X connect 40 0 43 0;
#X connect 40 0 44 0;
#X connect 45 0 34 0;
#X coords 0 0 1 1 771 647 1 0 0;
