#N canvas 827 239 527 327 12;
#X obj 12 359 transient_trigger;
#X obj 634 739 s~ trigger_in;
#X obj 12 11 r~ trigger_out;
#X obj 481 659 metro 1000;
#X obj 481 689 click~;
#X obj 481 616 tgl 25 0 empty empty empty 17 7 0 10 #191919 #ffffff #ffffff 0 1;
#X obj 1437 1073 vsl 17 128 0 1 0 0 empty empty empty 0 -9 0 10 #191919 #ffffff #ffffff 0 1;
#X obj 1359 1073 vsl 17 128 0 1000 0 0 empty empty empty 0 -9 0 10 #191919 #ffffff #ffffff 0 1;
#X obj 416 872 dac~;
#X obj 1168 1151 delwrite~ delay 1000;
#X obj 1135 1251 delread~ delay;
#X obj 1475 1266 metro;
#X obj 1452 1231 tgl 25 0 empty empty empty 17 7 0 10 #191919 #ffffff #ffffff 0 1;
#X floatatom 1475 1371 5 0 0 0 - - - 12;
#X obj 1475 1311 random 3;
#X obj 1156 1338 expr (2 - $f1);
#X obj 1129 1371 *~;
#X obj 1249 1379 *~;
#X obj 634 634 adc~;
#X obj 1270 1279 *~;
#X obj 12 48 looper;
#X obj 1421 747 r~ master;
#X obj 27 603 tgl 25 0 empty empty empty 17 7 0 10 #191919 #ffffff #ffffff 0 1;
#X obj 27 635 route 1 0;
#X obj 27 661 bng 25 250 50 0 empty empty empty 17 7 0 10 #191919 #ffffff #ffffff;
#X msg 27 693 start;
#X obj 94 661 bng 25 250 50 0 empty empty empty 17 7 0 10 #191919 #ffffff #ffffff;
#X msg 94 693 stop;
#X obj 48 755 s loop-rec;
#X obj 638 680 *~;
#X obj 710 585 vsl 17 128 0 1 0 0 empty empty empty 0 -9 0 10 #191919 #ffffff #ffffff 0 1;
#X obj 570 858 fluid.ampgate~;
#X obj 443 783 r~ trigger_out;
#X connect 2 0 20 0;
#X connect 3 0 4 0;
#X connect 4 0 1 0;
#X connect 5 0 3 0;
#X connect 6 0 19 1;
#X connect 7 0 10 0;
#X connect 7 0 11 1;
#X connect 10 0 16 0;
#X connect 10 0 17 0;
#X connect 10 0 19 0;
#X connect 11 0 14 0;
#X connect 12 0 11 0;
#X connect 14 0 13 0;
#X connect 14 0 17 1;
#X connect 14 0 15 0;
#X connect 15 0 16 1;
#X connect 18 0 29 0;
#X connect 18 1 29 0;
#X connect 19 0 9 0;
#X connect 22 0 23 0;
#X connect 23 0 24 0;
#X connect 23 1 26 0;
#X connect 24 0 25 0;
#X connect 25 0 28 0;
#X connect 26 0 27 0;
#X connect 27 0 28 0;
#X connect 29 0 1 0;
#X connect 30 0 29 1;
#X connect 32 0 8 0;
#X connect 32 0 8 1;
