#N canvas 827 239 527 327 12;
#X obj 21 89 vsl 17 128 0 100 0 0 empty empty empty 0 -9 0 10 #191919 #ffffff #ffffff 0 1;
#X obj 107 89 vsl 17 128 0 10000 0 0 empty empty empty 0 -9 0 10 #191919 #ffffff #ffffff 0 1;
#X floatatom 103 225 5 0 0 0 - - - 12;
#X floatatom 17 225 5 0 0 0 - - - 12;
#X obj 17 250 s thresh;
#X obj 122 250 s sens;
#X text 107 28 Sensitivity (ms), f 9;
#X obj 170 165 tgl 25 0 empty trans empty 17 7 0 10 #191919 #ffffff #ffffff 0 1;
#X text 151 105 Transient Detected, f 9;
#X obj 911 91 r~ trigger_in;
#X text 21 13 Release Threshold Volume, f 9;
#X obj 911 200 envelope_follower;
#X floatatom 911 234 5 0 0 0 - - - 12;
#X obj 754 401 f;
#X text 665 395 current rms;
#X obj 832 401 f;
#X text 879 395 rms 5 msec later;
#X obj 754 263 tgl 25 0 empty empty empty 17 7 0 10 #191919 #ffffff #ffffff 0 1;
#X obj 754 317 bng 25 250 50 0 empty empty empty 17 7 0 10 #191919 #ffffff #ffffff;
#X obj 754 291 metro 100;
#X obj 832 365 bng 25 250 50 0 empty empty empty 17 7 0 10 #191919 #ffffff #ffffff;
#X floatatom 754 427 5 0 0 0 - - - 12;
#X floatatom 832 427 5 0 0 0 - - - 12;
#X obj 754 473 expr ($f1 > $f2);
#X text 605 472 if the current rms is greater than the rms 5 msec later then we have detected a peak, f 18;
#X obj 754 499 tgl 25 0 empty empty empty 17 7 0 10 #191919 #ffffff #ffffff 0 1;
#X obj 754 531 route 1;
#X obj 754 557 bng 25 250 50 0 empty empty empty 17 7 0 10 #191919 #ffffff #ffffff;
#X obj 939 632 timer;
#X msg 873 575 tempo 1 msec;
#X floatatom 939 658 5 0 0 0 - - - 12;
#X text 739 192 peak detection;
#X text 1030 259 release detection;
#X obj 1096 295 r thresh;
#X obj 1018 344 expr ($f1 < $f2);
#X obj 1018 370 tgl 25 0 empty empty empty 17 7 0 10 #191919 #ffffff #ffffff 0 1;
#X text 1133 343 if current rms goes under threshold \, we should capture the value of the timer, f 18;
#X obj 1018 407 route 1;
#X obj 1018 450 bng 25 250 50 0 empty empty empty 17 7 0 10 #191919 #ffffff #ffffff;
#X text 1297 451 if time is within sensitivity \, then the sound is written to the loop;
#X text 1297 495 audio should be recorded into a buffer for the length of the gate \, then it is decided whether or not it is transient;
#X obj 753 660 r sens;
#X obj 861 705 expr ($f1 > $f2);
#X text 905 734 transient detected;
#N canvas 0 0 450 250 (subpatch) 0;
#X array \$0-buffer 1000 float 2;
#X coords 0 1 1000 -1 200 140 1;
#X restore 242 55 graph;
#X obj 1060 167 tabwrite~ \$0-buffer;
#X msg 1060 129 start;
#X msg 1115 129 stop;
#X obj 605 603 s \$0-buffer-rec-start;
#X obj 1060 68 r \$0-buffer-rec-start;
#X obj 1018 522 s \$0-buffer-rec-stop;
#X obj 1115 94 r \$0-buffer-rec-stop;
#X obj 874 886 print;
#X text 565 289 looks for peak at every bang;
#X text 13 300 detect transient on short time scale:;
#X text 13 327 if transient is detected \, gate opens until release threshold;
#X text 13 358 e.g. flute click that lasts 20 msec > sensitivity is set at 30 msec > is transient > gate opens until sound falls under release threshold > gate closes;
#X obj 754 236 loadbang;
#X obj 861 731 tgl 25 0 empty empty empty 17 7 0 10 #191919 #ffffff #ffffff 0 1;
#X obj 753 773 s trans;
#X text 13 435 transient detection works by:;
#X text 13 471 detecting a peak by detecting when rms begin to fall;
#X obj 832 336 delay 5;
#X text 13 543 starting a timer;
#X text 13 571 detecting when rms falls under release threshold value;
#X text 13 598 outputting timer value;
#X text 13 625 if timer value is under sensitivity (msec) \, then it is considered a transient;
#X text 13 695 tldr \; measures time in msec between peak and release \, if this time is short enough \, it is considered transient;
#X text 35 497 could implement fall by how much (adjustable difference between current and delayed signal to trigger peak detection);
#X text 64 932 flucoma transient slice implementation;
#X obj 126 1011 r~ trigger_in;
#X obj 126 1124 fluid.transientslice~;
#N canvas 1114 23 544 712 parameters 1;
#X obj 186 548 outlet;
#X obj 34 -62 loadbang;
#X obj 186 27 unpack 0 0 0 0 0 0;
#X floatatom 185 105 8 0 0 0 - - - 0;
#X text 111 105 order, f 10;
#X obj 186 4 r help.transients.presets;
#X msg 34 -37 \; help.transients.presets 20 256 128 0 2 1.1;
#X floatatom 185 125 8 0 0 0 - - - 0;
#X floatatom 185 145 8 0 0 0 - - - 0;
#X floatatom 185 165 8 0 0 0 - - - 0;
#X floatatom 185 185 8 0 0 0 - - - 0;
#X floatatom 185 205 8 0 0 0 - - - 0;
#X text 111 125 blocksize, f 10;
#X text 111 145 padsize, f 10;
#X text 111 165 skew, f 10;
#X text 111 205 threshback;
#X msg 186 271 order \$1;
#X msg 206 301 blocksize \$1;
#X msg 236 331 padsize \$1;
#X msg 266 361 skew \$1;
#X msg 336 421 threshback \$1;
#X text 111 185 threshfwd, f 10;
#X msg 296 391 threshfwd \$1;
#X connect 1 0 6 0;
#X connect 2 0 3 0;
#X connect 2 1 7 0;
#X connect 2 2 8 0;
#X connect 2 3 9 0;
#X connect 2 4 10 0;
#X connect 2 5 11 0;
#X connect 3 0 16 0;
#X connect 5 0 2 0;
#X connect 7 0 17 0;
#X connect 8 0 18 0;
#X connect 9 0 19 0;
#X connect 10 0 22 0;
#X connect 11 0 20 0;
#X connect 16 0 0 0;
#X connect 17 0 0 0;
#X connect 18 0 0 0;
#X connect 19 0 0 0;
#X connect 20 0 0 0;
#X connect 22 0 0 0;
#X coords 0 -1 1 1 150 129 2 100 100;
#X restore 226 970 pd parameters;
#X obj 211 1164 threshold~ 0.5 1 0.1 1;
#X obj 211 1190 bng 25 250 50 0 empty empty empty 17 7 0 10 #191919 #ffffff #ffffff;
#X text 244 1189 transient detected;
#X obj 91 1196 s~ trigger_out;
#X connect 0 0 3 0;
#X connect 1 0 2 0;
#X connect 2 0 5 0;
#X connect 3 0 4 0;
#X connect 11 0 12 0;
#X connect 12 0 15 1;
#X connect 12 0 13 1;
#X connect 12 0 34 0;
#X connect 13 0 21 0;
#X connect 15 0 22 0;
#X connect 17 0 19 0;
#X connect 18 0 13 0;
#X connect 18 0 62 0;
#X connect 19 0 18 0;
#X connect 20 0 15 0;
#X connect 21 0 23 0;
#X connect 22 0 23 1;
#X connect 23 0 25 0;
#X connect 25 0 26 0;
#X connect 26 0 27 0;
#X connect 27 0 28 0;
#X connect 27 0 48 0;
#X connect 28 0 30 0;
#X connect 29 0 28 0;
#X connect 30 0 42 1;
#X connect 33 0 34 1;
#X connect 34 0 35 0;
#X connect 35 0 37 0;
#X connect 37 0 38 0;
#X connect 38 0 50 0;
#X connect 38 0 28 1;
#X connect 41 0 42 0;
#X connect 42 0 58 0;
#X connect 46 0 45 0;
#X connect 47 0 45 0;
#X connect 49 0 46 0;
#X connect 51 0 47 0;
#X connect 57 0 17 0;
#X connect 58 0 59 0;
#X connect 62 0 20 0;
#X connect 70 0 71 0;
#X connect 71 0 73 0;
#X connect 71 0 76 0;
#X connect 72 0 71 0;
#X connect 73 0 74 0;
#X coords 0 0 1 1 462 225 1 0 0;
